<svg width="213" height="115" viewBox="0 0 213 115" fill="none" xmlns="http://www.w3.org/2000/svg">
<path d="M106.5 102.789C165.318 102.789 213 101.396 213 99.6766C213 97.9574 165.318 96.5637 106.5 96.5637C47.6817 96.5637 0 97.9574 0 99.6766C0 101.396 47.6817 102.789 106.5 102.789Z" fill="#E6E6E6"/>
<path d="M163.257 65.9468C163.123 65.9487 162.988 65.9506 162.852 65.9506C162.715 65.9506 162.581 65.9487 162.446 65.9468C155.317 65.7774 150.15 61.123 151.465 56.2395L154.673 44.3262L155.483 41.3118L169.852 41.5678L170.725 44.5168L174.163 56.124C175.618 61.0344 170.451 65.7774 163.257 65.9468Z" fill="#3F3D56"/>
<path opacity="0.2" d="M170.725 44.5168C168.275 45.9801 165.496 46.734 162.674 46.7005C159.852 46.667 157.09 45.8474 154.672 44.3262L155.483 41.3118L169.852 41.5678L170.725 44.5168Z" fill="black"/>
<path d="M170.119 56.6347C170.739 54.2175 172.779 50.7305 178.5 46.5261C188.478 39.1927 182.526 33.694 182.268 33.4636C181.727 32.9804 181.807 32.4378 182.454 32.2524C182.83 32.1739 183.217 32.1802 183.591 32.271C183.964 32.3618 184.314 32.5349 184.618 32.7788C184.941 33.058 192.395 39.7088 181.136 47.9828C171.003 55.4302 173.157 60.2917 173.182 60.3383C173.453 60.8583 173.018 61.2743 172.209 61.2687C171.399 61.2631 170.522 60.8374 170.25 60.318C170.192 60.2082 169.54 58.8851 170.119 56.6347Z" fill="#3F3D56"/>
<path d="M156.22 67.683C156.002 67.683 155.787 67.6382 155.585 67.5512C155.384 67.4641 155.202 67.3365 155.048 67.1756C154.894 67.0148 154.772 66.8238 154.688 66.6136C154.605 66.4034 154.562 66.1781 154.562 65.9506V58.4435C154.562 57.984 154.737 57.5434 155.048 57.2185C155.359 56.8936 155.78 56.7111 156.22 56.7111C156.66 56.7111 157.081 56.8936 157.392 57.2185C157.703 57.5434 157.878 57.984 157.878 58.4435V65.9506C157.878 66.1781 157.835 66.4034 157.752 66.6136C157.668 66.8238 157.546 67.0148 157.392 67.1756C157.238 67.3365 157.056 67.4641 156.854 67.5512C156.653 67.6382 156.438 67.683 156.22 67.683Z" fill="#3F3D56"/>
<path d="M157.674 49.8607C157.583 50.0674 157.454 50.2533 157.294 50.4079C157.134 50.5625 156.947 50.6826 156.742 50.7615C156.538 50.8404 156.321 50.8765 156.104 50.8678C155.886 50.859 155.672 50.8056 155.474 50.7105L148.948 47.5727C148.549 47.3803 148.239 47.0304 148.087 46.5996C147.935 46.1689 147.952 45.6926 148.136 45.2755C148.32 44.8584 148.654 44.5345 149.066 44.3751C149.479 44.2156 149.934 44.2336 150.334 44.425L156.86 47.5628C157.058 47.6579 157.236 47.7928 157.384 47.9597C157.532 48.1266 157.647 48.3224 157.722 48.5358C157.798 48.7492 157.833 48.976 157.824 49.2033C157.816 49.4307 157.765 49.6541 157.674 49.8607Z" fill="#3F3D56"/>
<path d="M168.03 49.8607C168.121 50.0674 168.25 50.2533 168.41 50.4079C168.569 50.5624 168.757 50.6826 168.961 50.7615C169.165 50.8404 169.382 50.8765 169.6 50.8678C169.817 50.859 170.031 50.8055 170.229 50.7104L176.756 47.5727C177.155 47.3806 177.465 47.0306 177.618 46.5997C177.77 46.1687 177.753 45.6921 177.569 45.2747C177.385 44.8573 177.05 44.5333 176.638 44.374C176.225 44.2146 175.769 44.233 175.37 44.425L168.843 47.5628C168.645 47.6579 168.467 47.7927 168.319 47.9597C168.171 48.1266 168.056 48.3224 167.981 48.5357C167.905 48.7491 167.871 48.976 167.879 49.2033C167.888 49.4306 167.939 49.654 168.03 49.8607Z" fill="#3F3D56"/>
<path d="M169.483 67.683C169.701 67.683 169.917 67.6382 170.118 67.5512C170.319 67.4641 170.502 67.3365 170.656 67.1756C170.81 67.0148 170.932 66.8238 171.015 66.6136C171.098 66.4034 171.141 66.1781 171.141 65.9506V58.4435C171.141 57.984 170.967 57.5434 170.656 57.2185C170.345 56.8936 169.923 56.7111 169.483 56.7111C169.044 56.7111 168.622 56.8936 168.311 57.2185C168 57.5434 167.825 57.984 167.825 58.4435V65.9506C167.825 66.1781 167.868 66.4034 167.952 66.6136C168.035 66.8238 168.157 67.0148 168.311 67.1756C168.465 67.3365 168.648 67.4641 168.849 67.5512C169.05 67.6382 169.266 67.683 169.483 67.683Z" fill="#3F3D56"/>
<path d="M176.412 19.0819C176.555 18.8934 176.659 18.6752 176.716 18.4418C176.772 18.2085 176.781 17.9652 176.741 17.728L175.839 12.1813L174.936 6.63454C174.888 6.33505 174.764 6.05424 174.579 5.82033C174.393 5.58643 174.152 5.40767 173.88 5.30201C173.607 5.19636 173.313 5.16754 173.026 5.21844C172.74 5.26935 172.471 5.3982 172.247 5.59203L168.101 9.18194L165.603 11.3447C163.938 11.0352 162.235 11.0084 160.561 11.2653L158.155 9.18194L154.009 5.59203C153.785 5.3982 153.516 5.26936 153.23 5.21845C152.943 5.16754 152.649 5.19636 152.376 5.30201C152.104 5.40767 151.862 5.58643 151.677 5.82034C151.491 6.05424 151.368 6.33505 151.319 6.63454L150.417 12.1813L149.515 17.728C149.467 18.0195 149.492 18.3191 149.587 18.5976C148.041 21.0747 147.158 23.9395 147.03 26.8941C146.902 29.8486 147.535 32.7849 148.861 35.3976C150.188 38.0102 152.16 40.2038 154.572 41.75C156.985 43.2963 159.75 44.1388 162.58 44.1899C165.41 44.241 168.202 43.4988 170.664 42.0406C173.127 40.5823 175.17 38.4613 176.582 35.8981C177.994 33.3349 178.723 30.4231 178.693 27.4657C178.663 24.5084 177.876 21.6134 176.412 19.0819Z" fill="#3F3D56"/>
<path d="M153.594 7.86499C153.495 7.86514 153.398 7.88363 153.306 7.9196C153.17 7.97111 153.05 8.05938 152.958 8.17532C152.866 8.29126 152.806 8.4307 152.782 8.57931L151.688 15.3058C151.664 15.4541 151.678 15.6064 151.728 15.7474C151.778 15.8884 151.862 16.0131 151.973 16.1091C152.084 16.205 152.217 16.2688 152.359 16.294C152.501 16.3192 152.647 16.3049 152.782 16.2526L158.904 13.8796C159.039 13.8273 159.158 13.7388 159.25 13.623C159.342 13.5072 159.403 13.3682 159.427 13.2199C159.451 13.0717 159.437 12.9194 159.387 12.7784C159.337 12.6374 159.252 12.5127 159.142 12.4167L159.142 12.4165L154.114 8.06321C153.968 7.93551 153.784 7.86536 153.594 7.86499Z" fill="#E6E6E6"/>
<path d="M172.663 7.86499C172.472 7.86536 172.288 7.93551 172.142 8.06321L167.115 12.4167C167.004 12.5127 166.919 12.6374 166.869 12.7784C166.819 12.9194 166.805 13.0717 166.829 13.2199C166.854 13.3682 166.915 13.5072 167.006 13.623C167.098 13.7388 167.218 13.8273 167.353 13.8796L173.475 16.2526C173.609 16.3049 173.755 16.3192 173.897 16.294C174.039 16.2688 174.172 16.205 174.283 16.1091C174.394 16.0131 174.478 15.8884 174.528 15.7474C174.579 15.6064 174.592 15.4541 174.568 15.3058L173.474 8.57931C173.451 8.4307 173.39 8.29126 173.298 8.17532C173.206 8.05938 173.086 7.97111 172.951 7.9196C172.858 7.88363 172.761 7.86514 172.663 7.86499Z" fill="#E6E6E6"/>
<path d="M162.852 32.2647C164.073 32.2647 165.062 31.2306 165.062 29.9549C165.062 28.6791 164.073 27.645 162.852 27.645C161.631 27.645 160.641 28.6791 160.641 29.9549C160.641 31.2306 161.631 32.2647 162.852 32.2647Z" fill="#E6E6E6"/>
<path d="M162.852 29.3774C163.666 29.3774 164.325 29.1188 164.325 28.7999C164.325 28.481 163.666 28.2224 162.852 28.2224C162.038 28.2224 161.378 28.481 161.378 28.7999C161.378 29.1188 162.038 29.3774 162.852 29.3774Z" fill="#3F3D56"/>
<path d="M161.746 31.3023H163.773V33.9009C163.773 34.0399 163.746 34.1776 163.696 34.3061C163.645 34.4345 163.57 34.5512 163.476 34.6495C163.382 34.7478 163.27 34.8258 163.147 34.879C163.024 34.9322 162.893 34.9596 162.76 34.9596C162.491 34.9596 162.233 34.8481 162.043 34.6495C161.853 34.451 161.746 34.1817 161.746 33.9009V31.3023H161.746Z" fill="#FF6584"/>
<path d="M162.975 5.10175C162.869 5.332 162.765 5.56474 162.668 5.80224C161.525 8.58829 161.14 11.6499 161.554 14.6501C161.762 14.3357 161.98 14.0081 162.201 13.6769C161.726 10.7974 161.993 7.83778 162.975 5.10175Z" fill="#3F3D56"/>
<path d="M164.633 7.21918C164.526 7.44943 164.423 7.68217 164.326 7.91967C163.183 10.7057 162.797 13.7673 163.212 16.7676C163.419 16.4531 163.637 16.1255 163.859 15.7943C163.384 12.9149 163.651 9.95521 164.633 7.21918Z" fill="#3F3D56"/>
<path d="M169.744 48.788L169.511 45.6843L169.277 42.5806C169.264 42.413 169.21 42.2519 169.119 42.1133C169.028 41.9748 168.903 41.8637 168.758 41.7914C168.613 41.719 168.452 41.6878 168.292 41.701C168.131 41.7142 167.977 41.7712 167.844 41.8664L165.389 43.6296L163.596 44.9172C163.481 44.777 163.339 44.6644 163.178 44.5872C163.018 44.51 162.844 44.47 162.667 44.47C162.491 44.47 162.317 44.51 162.156 44.5872C161.996 44.6644 161.854 44.777 161.739 44.9172L159.946 43.6296L157.49 41.8664C157.358 41.7712 157.204 41.7142 157.043 41.701C156.883 41.6878 156.722 41.719 156.577 41.7913C156.432 41.8637 156.307 41.9748 156.216 42.1133C156.125 42.2518 156.07 42.413 156.058 42.5806L155.824 45.6843L155.591 48.788C155.578 48.9556 155.608 49.1237 155.677 49.2754C155.746 49.4271 155.853 49.5571 155.985 49.6523C156.118 49.7475 156.272 49.8045 156.432 49.8177C156.593 49.8309 156.754 49.7997 156.899 49.7274L159.588 48.3869L161.798 47.2854C161.911 47.4058 162.047 47.5014 162.196 47.5666C162.345 47.6318 162.506 47.6654 162.667 47.6654C162.829 47.6654 162.989 47.6318 163.139 47.5666C163.288 47.5014 163.424 47.4058 163.537 47.2854L165.747 48.3869L168.436 49.7274C168.581 49.7997 168.742 49.8309 168.902 49.8177C169.063 49.8046 169.217 49.7475 169.349 49.6523C169.482 49.5571 169.588 49.4271 169.658 49.2754C169.727 49.1237 169.757 48.9556 169.744 48.788Z" fill="#6C63FF"/>
<path d="M159.904 28.0299C160.209 28.0299 160.457 27.7714 160.457 27.4524C160.457 27.1335 160.209 26.875 159.904 26.875C159.599 26.875 159.352 27.1335 159.352 27.4524C159.352 27.7714 159.599 28.0299 159.904 28.0299Z" fill="#E6E6E6"/>
<path d="M165.799 28.0299C166.104 28.0299 166.352 27.7714 166.352 27.4524C166.352 27.1335 166.104 26.875 165.799 26.875C165.494 26.875 165.246 27.1335 165.246 27.4524C165.246 27.7714 165.494 28.0299 165.799 28.0299Z" fill="#E6E6E6"/>
<path d="M55.9229 60.845C56.0573 60.8469 56.1918 60.8489 56.3281 60.8489C56.4644 60.8489 56.5989 60.8469 56.7334 60.845C63.8625 60.6756 69.0297 56.0212 67.7144 51.1377L64.5073 39.2244L63.6967 36.21L49.328 36.466L48.4548 39.415L45.0173 51.0222C43.562 55.9326 48.7293 60.6756 55.9229 60.845Z" fill="#3F3D56"/>
<path opacity="0.2" d="M48.4548 39.415C50.9048 40.8784 53.6841 41.6322 56.5059 41.5987C59.3277 41.5652 62.0898 40.7456 64.5073 39.2244L63.6968 36.21L49.328 36.466L48.4548 39.415Z" fill="black"/>
<path d="M47.316 50.121C45.7652 48.2137 42.4934 45.9742 35.6008 44.7323C23.5795 42.5654 26.7075 34.9342 26.8463 34.6107C27.1374 33.932 26.843 33.4773 26.1824 33.599C25.8105 33.696 25.4629 33.8751 25.1626 34.124C24.8624 34.373 24.6166 34.6861 24.4417 35.0425C24.2641 35.4393 20.2511 44.7831 33.8156 47.2271C46.0236 49.4277 46.0672 54.7849 46.0639 54.8381C46.0314 55.4294 46.5953 55.6108 47.3247 55.2437C48.0541 54.8767 48.6723 54.0999 48.7058 53.5087C48.7126 53.3838 48.7601 51.8964 47.316 50.121Z" fill="#3F3D56"/>
<path d="M62.9599 62.5813C63.1777 62.5813 63.3933 62.5365 63.5944 62.4494C63.7956 62.3624 63.9783 62.2348 64.1323 62.0739C64.2862 61.913 64.4084 61.722 64.4917 61.5118C64.575 61.3017 64.6179 61.0764 64.6179 60.8489V53.3417C64.6173 52.8826 64.4424 52.4425 64.1316 52.1181C63.8207 51.7936 63.3993 51.6114 62.9599 51.6114C62.5206 51.6114 62.0992 51.7936 61.7883 52.1181C61.4774 52.4425 61.3025 52.8826 61.302 53.3417V60.8489C61.302 61.0764 61.3449 61.3017 61.4282 61.5118C61.5115 61.722 61.6336 61.913 61.7876 62.0739C61.9415 62.2348 62.1243 62.3624 62.3255 62.4494C62.5266 62.5365 62.7422 62.5813 62.9599 62.5813Z" fill="#3F3D56"/>
<path d="M61.506 44.759C61.597 44.9657 61.7261 45.1516 61.8859 45.3061C62.0456 45.4607 62.233 45.5809 62.4372 45.6598C62.6414 45.7387 62.8585 45.7748 63.076 45.766C63.2936 45.7573 63.5074 45.7038 63.7052 45.6087L70.2319 42.4709C70.4299 42.376 70.6081 42.2412 70.7562 42.0743C70.9044 41.9073 71.0196 41.7115 71.0952 41.498C71.1709 41.2846 71.2056 41.0576 71.1972 40.8301C71.1889 40.6026 71.1377 40.379 71.0467 40.1722C70.9556 39.9654 70.8264 39.7794 70.6665 39.6248C70.5066 39.4701 70.3191 39.35 70.1147 39.2711C69.9103 39.1923 69.6931 39.1563 69.4754 39.1652C69.2577 39.1742 69.0438 39.2279 68.846 39.3233L62.3192 42.461C62.1214 42.5561 61.9435 42.691 61.7956 42.8579C61.6477 43.0249 61.5327 43.2206 61.4572 43.434C61.3816 43.6474 61.3471 43.8742 61.3555 44.1016C61.3639 44.3289 61.415 44.5523 61.506 44.759Z" fill="#3F3D56"/>
<path d="M51.1499 44.759C51.0589 44.9657 50.9299 45.1516 50.7701 45.3061C50.6103 45.4607 50.423 45.5809 50.2188 45.6598C50.0146 45.7387 49.7975 45.7748 49.5799 45.766C49.3624 45.7573 49.1486 45.7038 48.9508 45.6087L42.4241 42.4709C42.2261 42.376 42.0479 42.2412 41.8997 42.0743C41.7516 41.9073 41.6364 41.7115 41.5607 41.498C41.4851 41.2846 41.4504 41.0576 41.4587 40.8301C41.4671 40.6026 41.5182 40.379 41.6093 40.1722C41.7003 39.9654 41.8295 39.7794 41.9894 39.6248C42.1494 39.4701 42.3369 39.35 42.5413 39.2711C42.7456 39.1923 42.9629 39.1563 43.1806 39.1652C43.3983 39.1742 43.6122 39.2279 43.81 39.3233L50.3367 42.461C50.5345 42.5561 50.7125 42.691 50.8604 42.8579C51.0083 43.0249 51.1233 43.2206 51.1988 43.434C51.2743 43.6474 51.3089 43.8742 51.3005 44.1016C51.2921 44.3289 51.2409 44.5523 51.1499 44.759Z" fill="#3F3D56"/>
<path d="M49.6963 62.5813C49.4785 62.5813 49.2629 62.5365 49.0618 62.4494C48.8606 62.3624 48.6779 62.2348 48.5239 62.0739C48.37 61.913 48.2478 61.722 48.1645 61.5118C48.0812 61.3017 48.0383 61.0764 48.0383 60.8489V53.3417C48.0389 52.8826 48.2138 52.4425 48.5246 52.1181C48.8355 51.7936 49.2569 51.6114 49.6963 51.6114C50.1356 51.6114 50.557 51.7936 50.8679 52.1181C51.1788 52.4425 51.3537 52.8826 51.3542 53.3417V60.8489C51.3542 61.0764 51.3113 61.3017 51.228 61.5118C51.1447 61.722 51.0226 61.913 50.8686 62.0739C50.7147 62.2348 50.5319 62.3624 50.3307 62.4494C50.1296 62.5365 49.914 62.5813 49.6963 62.5813Z" fill="#3F3D56"/>
<path d="M69.1116 13.4036C69.2071 13.1252 69.232 12.8256 69.1838 12.534L68.2815 6.98731L67.3791 1.44058C67.3304 1.14109 67.2071 0.860283 67.0216 0.626376C66.8361 0.392469 66.595 0.213707 66.3224 0.108053C66.0498 0.0023984 65.7554 -0.0264261 65.4688 0.0244822C65.1822 0.0753905 64.9135 0.204237 64.6896 0.398067L60.5437 3.98798L58.1377 6.07132C56.4637 5.81443 54.7611 5.84125 53.0953 6.15077L50.5975 3.98797L46.4516 0.39806C46.2278 0.204229 45.959 0.0753832 45.6724 0.0244746C45.3858 -0.0264341 45.0914 0.00238688 44.8189 0.108041C44.5463 0.213696 44.3051 0.392461 44.1196 0.626368C43.9341 0.860276 43.8108 1.14108 43.7621 1.44057L42.8598 6.98731L41.9575 12.534C41.9176 12.7712 41.9264 13.0145 41.9831 13.2479C42.0398 13.4812 42.1432 13.6994 42.2865 13.888C40.8211 16.42 40.0318 19.3162 40.0009 22.275C39.97 25.2339 40.6986 28.1474 42.1108 30.7122C43.523 33.2771 45.5672 35.3996 48.0307 36.8589C50.4943 38.3182 53.287 39.0609 56.1184 39.0098C58.9498 38.9587 61.7164 38.1156 64.1302 36.5682C66.544 35.0209 68.5168 32.8258 69.8434 30.2115C71.17 27.5972 71.8018 24.6592 71.673 21.7032C71.5443 18.7472 70.6598 15.8813 69.1116 13.4036H69.1116Z" fill="#3F3D56"/>
<path d="M65.0658 2.96147L60.0383 7.31479L60.0382 7.31498C59.9274 7.41093 59.8427 7.53568 59.7926 7.67667C59.7426 7.81766 59.7289 7.96994 59.7531 8.11819C59.7772 8.26644 59.8382 8.40545 59.93 8.52124C60.0219 8.63703 60.1412 8.72552 60.2762 8.77783L66.3981 11.1509C66.533 11.2032 66.6788 11.2175 66.8207 11.1923C66.9626 11.1671 67.0956 11.1033 67.2065 11.0073C67.3173 10.9114 67.402 10.7866 67.4521 10.6456C67.5021 10.5046 67.5158 10.3523 67.4917 10.204L66.3975 3.47756C66.3741 3.32895 66.3134 3.18952 66.2214 3.07357C66.1294 2.95763 66.0096 2.86937 65.8741 2.81785C65.782 2.78188 65.6845 2.76339 65.5862 2.76324C65.3959 2.76362 65.2117 2.83377 65.0658 2.96147Z" fill="#E6E6E6"/>
<path d="M46.2292 2.81785C46.0938 2.86937 45.9739 2.95763 45.882 3.07357C45.79 3.18951 45.7292 3.32895 45.7059 3.47756L44.6117 10.204C44.5876 10.3523 44.6012 10.5046 44.6513 10.6456C44.7014 10.7866 44.7861 10.9114 44.8969 11.0073C45.0077 11.1033 45.1408 11.1671 45.2827 11.1923C45.4246 11.2175 45.5703 11.2032 45.7053 11.1509L51.8272 8.77783C51.9621 8.72552 52.0815 8.63703 52.1733 8.52124C52.2651 8.40545 52.3262 8.26644 52.3503 8.11819C52.3744 7.96994 52.3608 7.81766 52.3107 7.67667C52.2607 7.53568 52.176 7.41093 52.0652 7.31498L47.0375 2.96147C46.8916 2.83377 46.7075 2.76362 46.5172 2.76324C46.4188 2.76339 46.3213 2.78188 46.2292 2.81785Z" fill="#E6E6E6"/>
<path d="M56.328 27.163C57.5489 27.163 58.5386 26.1288 58.5386 24.8531C58.5386 23.5774 57.5489 22.5432 56.328 22.5432C55.1071 22.5432 54.1174 23.5774 54.1174 24.8531C54.1174 26.1288 55.1071 27.163 56.328 27.163Z" fill="#E6E6E6"/>
<path d="M56.328 24.2756C57.1419 24.2756 57.8017 24.0171 57.8017 23.6981C57.8017 23.3792 57.1419 23.1207 56.328 23.1207C55.5141 23.1207 54.8542 23.3792 54.8542 23.6981C54.8542 24.0171 55.5141 24.2756 56.328 24.2756Z" fill="#3F3D56"/>
<path d="M56.4202 29.8578C56.2871 29.8578 56.1554 29.8305 56.0324 29.7773C55.9095 29.7241 55.7978 29.6461 55.7037 29.5478C55.6097 29.4495 55.535 29.3327 55.4841 29.2043C55.4332 29.0758 55.407 28.9382 55.407 28.7991V26.2005H57.4333V28.7991C57.4334 28.9382 57.4071 29.0758 57.3562 29.2043C57.3053 29.3327 57.2307 29.4495 57.1366 29.5478C57.0425 29.6461 56.9308 29.7241 56.8079 29.7773C56.685 29.8305 56.5532 29.8578 56.4202 29.8578Z" fill="#FF6584"/>
<path d="M56.2051 0C56.3113 0.230251 56.4145 0.462991 56.5115 0.700492C57.6548 3.48654 58.0403 6.54814 57.6258 9.54839C57.4183 9.23394 57.2004 8.90634 56.9787 8.57513C57.4535 5.69566 57.1865 2.73603 56.2051 0Z" fill="#3F3D56"/>
<path d="M54.5471 2.1174C54.6534 2.34765 54.7565 2.58039 54.8536 2.81789C55.9968 5.60394 56.3824 8.66555 55.9678 11.6658C55.7604 11.3514 55.5424 11.0237 55.3207 10.6925C55.7955 7.81307 55.5285 4.85343 54.5471 2.1174Z" fill="#3F3D56"/>
<path d="M49.4357 10.0003L49.6692 6.89663L49.9028 3.79293C49.9154 3.62535 49.97 3.46418 50.0611 3.32564C50.1522 3.1871 50.2766 3.07606 50.4218 3.00368C50.567 2.93131 50.7279 2.90014 50.8883 2.91332C51.0486 2.9265 51.2029 2.98355 51.3355 3.07876L53.791 4.84197L55.5841 6.12952C55.6987 5.98931 55.8411 5.87673 56.0013 5.79953C56.1616 5.72234 56.3359 5.68237 56.5124 5.68237C56.6888 5.68237 56.8632 5.72234 57.0234 5.79953C57.1837 5.87673 57.326 5.98931 57.4406 6.12952L59.2337 4.84197L61.6893 3.07876C61.8219 2.98355 61.9761 2.9265 62.1365 2.91332C62.2969 2.90014 62.4577 2.93131 62.6029 3.00368C62.7481 3.07606 62.8725 3.1871 62.9636 3.32564C63.0547 3.46418 63.1093 3.62535 63.1219 3.79293L63.3555 6.89663L63.5891 10.0003C63.6017 10.1679 63.5719 10.336 63.5026 10.4877C63.4333 10.6394 63.3271 10.7694 63.1945 10.8646C63.0619 10.9598 62.9077 11.0169 62.7473 11.0301C62.5869 11.0432 62.426 11.0121 62.2808 10.9397L59.5917 9.5992L57.3822 8.49777C57.2685 8.61815 57.1331 8.71372 56.9838 8.77896C56.8344 8.84419 56.6742 8.87778 56.5124 8.87778C56.3505 8.87778 56.1903 8.84419 56.041 8.77896C55.8916 8.71372 55.7562 8.61815 55.6425 8.49777L53.433 9.5992L50.7439 10.9397C50.5987 11.0121 50.4378 11.0433 50.2775 11.0301C50.1171 11.0169 49.9629 10.9598 49.8303 10.8646C49.6977 10.7694 49.5914 10.6394 49.5222 10.4877C49.4529 10.336 49.4231 10.1679 49.4357 10.0003Z" fill="#6C63FF"/>
<path d="M58.7229 22.3507C58.7229 22.6696 58.9703 22.3507 59.2756 22.3507C59.5808 22.3507 59.8282 22.6696 59.8282 22.3507C59.8279 22.1977 59.7695 22.0512 59.6659 21.9431C59.5623 21.8351 59.4219 21.7744 59.2756 21.7744C59.1292 21.7744 58.9888 21.8351 58.8852 21.9431C58.7816 22.0512 58.7232 22.1977 58.7229 22.3507Z" fill="#E6E6E6"/>
<path d="M53.9332 22.3507C53.9332 22.6696 53.6857 22.3507 53.3805 22.3507C53.0753 22.3507 52.8279 22.6696 52.8279 22.3507C52.8282 22.1977 52.8865 22.0512 52.9902 21.9431C53.0938 21.8351 53.2342 21.7744 53.3805 21.7744C53.5269 21.7744 53.6673 21.8351 53.7709 21.9431C53.8745 22.0512 53.9329 22.1977 53.9332 22.3507Z" fill="#E6E6E6"/>
<path d="M115.247 65.9517V62.281H97.6831V62.5106V65.9517V95.5464V99.2171H101.196H115.247V95.5464H101.196V65.9517H115.247Z" fill="#3F3D56"/>
<path d="M123.81 62.2811V99.217H141.374V62.2811H123.81ZM137.861 95.5464H127.323V65.9518H137.861V95.5464Z" fill="#6C63FF"/>
<path d="M75.0693 95.5464V62.5106H71.5564V95.5464V99.2171H75.0693H89.1206V95.5464H75.0693Z" fill="#6C63FF"/>
<path d="M63.6526 65.9517V62.281H46.0884V62.5106V65.9517V78.799V82.4697V95.5464V99.2171H49.6013H63.6526V95.5464H49.6013V82.4697H63.6526V78.799H49.6013V65.9517H63.6526Z" fill="#3F3D56"/>
<path d="M201.092 65.9517V62.281H183.528V62.5106V65.9517V78.799V82.4697V95.5464V99.2171H187.041H201.092V95.5464H187.041V82.4697H201.092V78.799H187.041V65.9517H201.092Z" fill="#6C63FF"/>
<path d="M34.2325 62.5105V92.8477L24.9703 83.1697L24.9492 83.1919L24.9296 83.1714L15.4609 93.0655V62.3959H11.948V99.1024H15.4609V98.2565L24.9509 88.3401L34.2325 98.039V99.2171H37.7454V62.5105H34.2325Z" fill="#3F3D56"/>
<path d="M171.892 62.5105V63.3562L162.402 73.2726L153.12 63.574V62.3959H149.607V99.1024H153.12V68.765L162.382 78.4433L162.404 78.421L162.423 78.4413L171.892 68.5472V99.2171H175.405V62.5105H171.892Z" fill="#3F3D56"/>
<path d="M80.2756 39.8987C81.4664 39.8987 82.4317 38.89 82.4317 37.6456C82.4317 36.4013 81.4664 35.3926 80.2756 35.3926C79.0847 35.3926 78.1194 36.4013 78.1194 37.6456C78.1194 38.89 79.0847 39.8987 80.2756 39.8987Z" fill="#6C63FF"/>
<path d="M27.09 64.9325C28.2808 64.9325 29.2462 63.9238 29.2462 62.6794C29.2462 61.4351 28.2808 60.4264 27.09 60.4264C25.8992 60.4264 24.9338 61.4351 24.9338 62.6794C24.9338 63.9238 25.8992 64.9325 27.09 64.9325Z" fill="#6C63FF"/>
<path d="M69.7343 115C70.9251 115 71.8905 113.991 71.8905 112.747C71.8905 111.503 70.9251 110.494 69.7343 110.494C68.5435 110.494 67.5781 111.503 67.5781 112.747C67.5781 113.991 68.5435 115 69.7343 115Z" fill="#6C63FF"/>
<path d="M123.878 46.6578C125.069 46.6578 126.034 45.6491 126.034 44.4048C126.034 43.1605 125.069 42.1517 123.878 42.1517C122.687 42.1517 121.722 43.1605 121.722 44.4048C121.722 45.6491 122.687 46.6578 123.878 46.6578Z" fill="#6C63FF"/>
<path d="M187.365 112.997C188.556 112.997 189.522 111.989 189.522 110.744C189.522 109.5 188.556 108.491 187.365 108.491C186.175 108.491 185.209 109.5 185.209 110.744C185.209 111.989 186.175 112.997 187.365 112.997Z" fill="#6C63FF"/>
<path d="M189.522 53.9176C190.712 53.9176 191.678 52.9089 191.678 51.6646C191.678 50.4202 190.712 49.4115 189.522 49.4115C188.331 49.4115 187.365 50.4202 187.365 51.6646C187.365 52.9089 188.331 53.9176 189.522 53.9176Z" fill="#6C63FF"/>
<path d="M162.21 94.4723C163.401 94.4723 164.366 93.4636 164.366 92.2193C164.366 90.975 163.401 89.9662 162.21 89.9662C161.019 89.9662 160.054 90.975 160.054 92.2193C160.054 93.4636 161.019 94.4723 162.21 94.4723Z" fill="#6C63FF"/>
</svg>
